<svg width="133" height="38" viewBox="0 0 133 38" fill="none" xmlns="http://www.w3.org/2000/svg">
<path d="M19.5 38H0.0234375V29.75H3.77344V8.96094H0.0234375V0.710938H23.9766C27.8516 0.710938 30.6953 1.49219 32.5078 3.05469C34.3359 4.61719 35.25 7.21094 35.25 10.8359C35.25 13.2578 34.5703 15.125 33.2109 16.4375C31.8516 17.75 29.9219 18.6328 27.4219 19.0859C29.6719 19.4453 31.2891 20.2891 32.2734 21.6172C33.2734 22.9453 33.7734 24.6016 33.7734 26.5859V29.6094H39V38H31.4531C29.8438 38 28.5469 37.9453 27.5625 37.8359C26.5781 37.7109 25.7969 37.4297 25.2188 36.9922C24.6562 36.5391 24.1875 35.8359 23.8125 34.8828C23.25 33.4453 22.9688 31.0469 22.9688 27.6875C22.9688 25.7656 22.6562 24.3438 22.0312 23.4219C21.4062 22.4844 20.2656 22.0156 18.6094 22.0156H15.7734V29.75H19.5V38ZM15.7734 8.96094V16.6953H18.9844C20.6875 16.6953 21.9531 16.3906 22.7812 15.7812C23.6094 15.1719 24.0234 14.1016 24.0234 12.5703C24.0234 11.4453 23.5938 10.5625 22.7344 9.92188C21.8906 9.28125 20.7969 8.96094 19.4531 8.96094H15.7734ZM60.7734 38H40.6172V29.6094H44.2734V8.96094H40.7109V0.664062H60.6797C63.7422 0.664062 66.4531 1 68.8125 1.67188C71.1875 2.32812 73.0469 3.4375 74.3906 5C75.75 6.5625 76.4297 8.71094 76.4297 11.4453C76.4297 16.2266 75.1328 19.6641 72.5391 21.7578C69.9453 23.8516 66.0547 24.8984 60.8672 24.8984C59.5391 24.8984 58.375 24.8203 57.375 24.6641V29.6094H60.7734V38ZM57.4219 8.96094V17.2578H58.3828C61.9297 17.2578 63.7031 15.6953 63.7031 12.5703C63.7031 11.4141 63.3125 10.5234 62.5312 9.89844C61.75 9.27344 60.7031 8.96094 59.3906 8.96094H57.4219ZM95.3672 29.75V38H79.6172V29.75H84.1406V8.96094H79.6172V0.710938H99.7266L106.969 18.6641L114.141 0.710938H132.891V8.96094H128.391V29.75H132.891V38H113.367V29.75H116.391V15.8281L108.141 38H101.367L91.6172 15.2891V29.75H95.3672Z" fill="#10D368"/>
</svg>
